<?xml version="1.0" standalone="no"?>
<!DOCTYPE svg PUBLIC "-//W3C//DTD SVG 20010904//EN"
 "http://www.w3.org/TR/2001/REC-SVG-20010904/DTD/svg10.dtd">
<svg version="1.0" xmlns="http://www.w3.org/2000/svg"
 width="300.000000pt" height="300.000000pt" viewBox="0 0 300.000000 300.000000"
 preserveAspectRatio="xMidYMid meet">

<g transform="translate(0.000000,300.000000) scale(0.100000,-0.100000)"
fill="white" stroke="none">
<path d="M1340 2979 c-390 -43 -753 -242 -997 -543 -323 -401 -415 -945 -243
-1431 74 -209 184 -379 350 -546 215 -216 456 -346 760 -410 141 -30 408 -32
550 -5 310 60 556 191 781 415 224 225 355 472 415 781 25 130 25 399 1 525
-60 310 -196 566 -416 785 -177 177 -350 284 -580 360 -193 64 -431 90 -621
69z m64 -669 c227 -37 358 -221 325 -455 -22 -157 -116 -274 -249 -308 -28 -7
-48 -16 -44 -19 3 -4 23 -68 44 -142 47 -164 53 -176 87 -176 20 0 42 15 81
58 96 102 138 170 172 277 75 236 183 478 254 572 100 132 251 152 306 39 44
-91 14 -258 -79 -451 -26 -55 -69 -128 -95 -161 -58 -77 -163 -176 -205 -193
-36 -16 -36 -26 3 -55 21 -16 42 -21 95 -21 85 0 127 26 191 121 25 37 59 82
75 101 27 31 33 33 57 24 16 -6 30 -21 34 -36 13 -54 -141 -261 -230 -308 -32
-16 -59 -21 -121 -22 -44 0 -91 4 -104 9 -15 5 -21 5 -18 -2 16 -24 27 -194
17 -261 -25 -178 -103 -281 -213 -281 -93 0 -150 73 -149 189 1 59 51 314 69
344 3 7 -7 0 -23 -14 -70 -63 -130 -77 -192 -45 -71 37 -105 98 -136 245 -35
161 -58 195 -149 216 l-54 13 -42 -102 c-121 -290 -125 -298 -176 -351 -140
-143 -365 -74 -365 112 0 71 41 107 99 86 23 -8 26 -14 23 -52 -4 -63 17 -91
70 -91 62 0 98 33 151 142 25 51 71 165 102 253 131 372 181 475 255 530 42
31 64 32 84 3 24 -34 19 -57 -24 -113 -38 -49 -140 -267 -140 -299 0 -20 54
-30 166 -31 84 0 94 2 140 30 37 24 56 44 79 90 27 53 30 68 30 154 0 80 -4
103 -22 138 -93 173 -424 173 -540 0 -62 -92 -71 -195 -25 -276 l27 -50 -21
-27 c-35 -47 -50 -51 -80 -24 -33 31 -71 111 -80 167 -9 62 13 169 48 235 87
164 286 252 492 218z"/>
<path d="M2208 2082 c-33 -22 -59 -54 -88 -112 -29 -55 -200 -504 -195 -509
10 -9 110 67 156 117 109 123 234 436 200 501 -14 26 -37 27 -73 3z"/>
<path d="M1831 1174 c-24 -81 -63 -281 -68 -339 -8 -107 41 -125 89 -32 27 52
37 216 19 317 -16 90 -26 103 -40 54z"/>
</g>
</svg>
